<svg width="80" height="16" viewBox="0 0 80 16" fill="none" xmlns="http://www.w3.org/2000/svg">
<path d="M7.4039 1.75623C7.58351 1.20344 8.36556 1.20344 8.54517 1.75623L9.63022 5.09568C9.71055 5.34289 9.94092 5.51027 10.2009 5.51027L13.7122 5.51027C14.2934 5.51027 14.5351 6.25404 14.0648 6.59568L11.2241 8.65957C11.0138 8.81236 10.9258 9.08318 11.0062 9.33039L12.0912 12.6698C12.2708 13.2226 11.6381 13.6823 11.1679 13.3407L8.32721 11.2768C8.11692 11.124 7.83216 11.124 7.62187 11.2768L4.78116 13.3407C4.31093 13.6823 3.67824 13.2226 3.85786 12.6698L4.94291 9.33039C5.02323 9.08318 4.93524 8.81236 4.72495 8.65957L1.88424 6.59568C1.41401 6.25404 1.65568 5.51027 2.23691 5.51027L5.74822 5.51027C6.00815 5.51027 6.23853 5.34289 6.31885 5.09568L7.4039 1.75623Z" fill="#FFAF32"/>
<path d="M23.3531 1.75623C23.5327 1.20344 24.3148 1.20344 24.4944 1.75623L25.5794 5.09568C25.6598 5.34289 25.8901 5.51027 26.1501 5.51027L29.6614 5.51027C30.2426 5.51027 30.4843 6.25404 30.0141 6.59568L27.1733 8.65957C26.9631 8.81236 26.8751 9.08318 26.9554 9.33039L28.0404 12.6698C28.22 13.2226 27.5874 13.6823 27.1171 13.3407L24.2764 11.2768C24.0661 11.124 23.7814 11.124 23.5711 11.2768L20.7304 13.3407C20.2602 13.6823 19.6275 13.2226 19.8071 12.6698L20.8921 9.33039C20.9725 9.08318 20.8845 8.81236 20.6742 8.65957L17.8335 6.59568C17.3632 6.25404 17.6049 5.51027 18.1861 5.51027L21.6974 5.51027C21.9574 5.51027 22.1877 5.34289 22.2681 5.09568L23.3531 1.75623Z" fill="#FFAF32"/>
<path d="M39.3023 1.75623C39.482 1.20344 40.264 1.20344 40.4436 1.75623L41.5287 5.09568C41.609 5.34289 41.8394 5.51027 42.0993 5.51027L45.6106 5.51027C46.1918 5.51027 46.4335 6.25404 45.9633 6.59568L43.1226 8.65957C42.9123 8.81236 42.8243 9.08318 42.9046 9.33039L43.9897 12.6698C44.1693 13.2226 43.5366 13.6823 43.0664 13.3407L40.2256 11.2768C40.0154 11.124 39.7306 11.124 39.5203 11.2768L36.6796 13.3407C36.2094 13.6823 35.5767 13.2226 35.7563 12.6698L36.8413 9.33039C36.9217 9.08318 36.8337 8.81236 36.6234 8.65957L33.7827 6.59568C33.3125 6.25404 33.5541 5.51027 34.1353 5.51027L37.6467 5.51027C37.9066 5.51027 38.137 5.34289 38.2173 5.09568L39.3023 1.75623Z" fill="#FFAF32"/>
<path d="M71.2008 1.75623C71.3804 1.20344 72.1624 1.20344 72.342 1.75623L73.4271 5.09568C73.5074 5.34289 73.7378 5.51027 73.9977 5.51027L77.509 5.51027C78.0903 5.51027 78.3319 6.25404 77.8617 6.59568L75.021 8.65957C74.8107 8.81236 74.7227 9.08318 74.803 9.33039L75.8881 12.6698C76.0677 13.2226 75.435 13.6823 74.9648 13.3407L72.1241 11.2768C71.9138 11.124 71.629 11.124 71.4187 11.2768L68.578 13.3407C68.1078 13.6823 67.4751 13.2226 67.6547 12.6698L68.7398 9.33039C68.8201 9.08318 68.7321 8.81236 68.5218 8.65957L65.6811 6.59568C65.2109 6.25404 65.4526 5.51027 66.0338 5.51027L69.5451 5.51027C69.805 5.51027 70.0354 5.34289 70.1157 5.09568L71.2008 1.75623Z" fill="#FFAF32"/>
<path d="M55.2516 1.75623C55.4312 1.20344 56.2132 1.20344 56.3928 1.75623L57.4779 5.09568C57.5582 5.34289 57.7886 5.51027 58.0485 5.51027L61.5598 5.51027C62.1411 5.51027 62.3827 6.25404 61.9125 6.59568L59.0718 8.65957C58.8615 8.81236 58.7735 9.08318 58.8538 9.33039L59.9389 12.6698C60.1185 13.2226 59.4858 13.6823 59.0156 13.3407L56.1749 11.2768C55.9646 11.124 55.6798 11.124 55.4695 11.2768L52.6288 13.3407C52.1586 13.6823 51.5259 13.2226 51.7055 12.6698L52.7906 9.33039C52.8709 9.08318 52.7829 8.81236 52.5726 8.65957L49.7319 6.59568C49.2617 6.25404 49.5033 5.51027 50.0846 5.51027L53.5959 5.51027C53.8558 5.51027 54.0862 5.34289 54.1665 5.09568L55.2516 1.75623Z" fill="#FFAF32"/>
</svg>
