<svg width="111" height="38" viewBox="0 0 111 38" fill="none" xmlns="http://www.w3.org/2000/svg">
<path d="M71.3847 21.0009C70.6356 26.1044 68.9095 28.1855 60.5158 28.1855C52.1222 28.1855 40.8044 21.9337 40.8044 13.5401C40.8044 5.14643 47.5167 0 55.9104 0C62.5422 0.552656 72.8585 10.961 71.3847 21.0009Z" fill="#FFAF32"/>
<path fill-rule="evenodd" clip-rule="evenodd" d="M56.5344 11.1342C57.2544 10.7101 58.0748 10.4865 58.9103 10.4865H59.2721V10.7741H58.9103C58.1291 10.7741 57.362 10.9824 56.6881 11.3774L55.273 12.4714L54.3601 13.1627C54.1315 13.3358 53.8836 13.4817 53.6214 13.5976L53.0799 13.8367C52.966 13.8871 52.8427 13.9131 52.7182 13.9131H52.6965C52.5195 13.9131 52.3527 13.9962 52.2461 14.1375C52.1723 14.2354 52.1323 14.3547 52.1323 14.4773V14.4868C52.1323 14.6791 52.2257 14.8595 52.3828 14.9706L52.7442 15.226C52.874 15.3178 53.0181 15.3875 53.1706 15.4324L53.8805 15.6415C53.9355 15.6577 53.9925 15.6659 54.0498 15.6659H55.2466C55.4865 15.6659 55.6232 15.9402 55.4786 16.1317C55.4782 16.1323 55.4779 16.1327 55.4778 16.1329C55.4779 16.1332 55.4778 16.1341 55.4783 16.135C55.4788 16.1359 55.4793 16.1364 55.4795 16.1366C55.4796 16.1366 55.4801 16.1367 55.4805 16.1367C55.4807 16.1367 55.4809 16.1367 55.4811 16.1367H57.1403C57.8383 16.1367 58.4698 15.7229 58.7484 15.0829L59.1339 14.1976L59.3888 12.8463C59.4585 12.4766 59.7058 12.165 60.0499 12.013C60.458 11.8327 60.9337 11.9064 61.2681 12.2018L61.3976 12.3162C61.6005 12.4955 61.7476 12.7294 61.8214 12.99L62.2311 14.4378C62.2424 14.478 62.2586 14.5166 62.2791 14.553C62.4936 14.9319 62.3703 15.4125 62.0001 15.6414L60.8686 16.3412C60.7928 16.388 60.7119 16.4258 60.6274 16.4538C59.8893 16.6984 59.1284 16.1488 59.1284 15.3713V14.9306L59.0121 15.1977C58.6878 15.9426 57.9527 16.4243 57.1403 16.4243H55.4811C55.2412 16.4243 55.1045 16.15 55.2491 15.9585C55.2495 15.9579 55.2498 15.9575 55.2499 15.9573C55.2498 15.957 55.2499 15.9561 55.2494 15.9552C55.2489 15.9543 55.2484 15.9538 55.2482 15.9536C55.248 15.9535 55.2473 15.9535 55.2466 15.9535H54.0498C53.965 15.9535 53.8806 15.9413 53.7993 15.9173L53.0894 15.7083C52.9065 15.6544 52.7338 15.5708 52.5782 15.4608L52.2168 15.2054C51.9835 15.0405 51.8447 14.7725 51.8447 14.4868V14.4773C51.8447 14.2922 51.9051 14.112 52.0166 13.9643C52.1775 13.7509 52.4293 13.6255 52.6965 13.6255H52.7182C52.8027 13.6255 52.8864 13.6079 52.9637 13.5737L53.5052 13.3345C53.7471 13.2277 53.9757 13.0931 54.1865 12.9335L55.0988 12.2426L56.5195 11.1443L56.6074 11.2581L56.5344 11.1342ZM59.4159 14.2536V15.3713C59.4159 15.9528 59.985 16.3637 60.537 16.1809C60.6002 16.1599 60.6607 16.1317 60.7173 16.0966L61.8488 15.3969C62.0877 15.2491 62.1672 14.9391 62.0289 14.6946C61.997 14.6383 61.972 14.5784 61.9544 14.5161L61.5447 13.0683C61.486 12.8608 61.3688 12.6745 61.2072 12.5317L61.0777 12.4173C60.8275 12.1963 60.4715 12.1411 60.1661 12.276C59.9086 12.3898 59.7235 12.623 59.6713 12.8996L59.4159 14.2536Z" fill="#003D5C"/>
<path fill-rule="evenodd" clip-rule="evenodd" d="M61.1199 11.5635C60.5478 11.055 59.8089 10.7741 59.0435 10.7741V10.4865C59.8794 10.4865 60.6862 10.7933 61.311 11.3486L61.5051 11.5212C61.7101 11.7034 61.8962 11.9056 62.0607 12.125L63.3691 13.8694C64.4567 15.3195 65.7169 16.6317 67.122 17.7769L70.1304 19.9791L70.3534 20.103C72.0975 21.072 73.7509 22.1961 75.2934 23.4617L75.2022 23.5729L75.3013 23.4687L77.7923 25.8411L79.5765 27.9028L80.9368 29.7714C81.3423 30.3285 81.5608 31 81.5608 31.6891V32.2538C81.5608 32.5923 81.451 32.9217 81.248 33.1924C80.9525 33.5863 80.4889 33.8182 79.9965 33.8182H77.6881C77.3569 33.8182 77.1799 33.4281 77.398 33.1788L77.7617 32.7631C77.933 32.5673 77.8373 32.2597 77.5852 32.1957L77.1215 32.0779L77.12 32.0775L75.9046 31.7829C75.3961 31.6596 74.9545 31.3453 74.6715 30.9051C74.4604 30.5767 74.3481 30.1944 74.3481 29.804V29.6186C74.3481 29.2506 74.4539 28.8903 74.6529 28.5807C74.9476 28.1224 75.4232 27.8109 75.9611 27.724L76.5127 27.6348C76.9409 27.5656 77.3789 27.585 77.7994 27.6918L77.9663 27.7342C78.2652 27.8101 78.5723 27.8485 78.8807 27.8485H79.1492L77.5839 26.0397L75.1069 23.6806C73.5789 22.4274 71.9413 21.3141 70.2137 20.3544L69.975 20.2218L66.9491 18.0068L67.034 17.8908L66.9432 18.0022C65.5189 16.8417 64.2414 15.5118 63.139 14.042L61.8307 12.2976C61.6777 12.0936 61.5046 11.9055 61.3141 11.7361L61.1199 11.5635ZM79.3906 28.1361H78.8807C78.5485 28.1361 78.2175 28.0947 77.8955 28.0129L77.7286 27.9705C77.3462 27.8734 76.948 27.8558 76.5585 27.9187L76.007 28.0078C75.5497 28.0818 75.1453 28.3466 74.8948 28.7362C74.7256 28.9994 74.6357 29.3057 74.6357 29.6186V29.804C74.6357 30.1393 74.7321 30.4675 74.9134 30.7496C75.1564 31.1276 75.5356 31.3976 75.9724 31.5034L77.1908 31.7988L77.656 31.917C78.1161 32.0338 78.2908 32.5952 77.9782 32.9525L77.6144 33.3682C77.559 33.4315 77.604 33.5306 77.6881 33.5306H79.9965C80.3984 33.5306 80.7768 33.3414 81.0179 33.0199C81.1837 32.7989 81.2733 32.5301 81.2733 32.2538V31.6891C81.2733 31.0608 81.0741 30.4486 80.7043 29.9406L79.3906 28.1361Z" fill="#003D5C"/>
<path fill-rule="evenodd" clip-rule="evenodd" d="M80.5265 29.1696L79.4358 28.3905L79.6029 28.1565L80.6936 28.9356C81.1588 29.2678 81.5697 29.6701 81.9117 30.1282L82.1372 30.4301C82.3698 30.7416 82.5467 31.0909 82.6603 31.4627L82.8081 31.9467C82.9603 32.4447 82.9196 32.9817 82.6943 33.4512C82.5488 33.7543 82.3318 34.0176 82.0621 34.2183L81.5119 34.6276C81.4128 34.7013 81.3033 34.7599 81.1869 34.8015L80.8583 34.9189C80.6736 34.9848 80.5504 35.1597 80.5504 35.3558C80.5504 35.5268 80.6445 35.684 80.7952 35.7647L81.0996 35.9278C81.2508 36.0088 81.4196 36.0511 81.5911 36.0511H86.5913C87.1173 36.0511 87.2429 35.3172 86.7468 35.1423L83.8774 34.1311C83.6313 34.0443 83.6899 33.6835 83.9461 33.6749L86.5059 33.3892C87.6351 33.2632 88.7746 33.5095 89.7509 34.0906C90.5131 34.5443 91.3836 34.7837 92.2705 34.7837H110.04V35.0713H92.2705C91.3318 35.0713 90.4105 34.8178 89.6038 34.3377C88.6813 33.7886 87.6047 33.5559 86.5378 33.675L84.1915 33.9368L86.8424 34.8711C87.6435 35.1534 87.4407 36.3387 86.5913 36.3387H81.5911C81.3722 36.3387 81.1568 36.2846 80.9639 36.1813L80.6594 36.0182C80.4152 35.8874 80.2628 35.6328 80.2628 35.3558C80.2628 35.0382 80.4624 34.7549 80.7615 34.6481L81.0902 34.5307C81.1797 34.4987 81.264 34.4536 81.3402 34.3969L81.8904 33.9875C82.1228 33.8147 82.3097 33.5879 82.435 33.3268C82.6292 32.9223 82.6642 32.4597 82.5331 32.0307L82.3853 31.5467C82.2814 31.2066 82.1195 30.8871 81.9068 30.6022L81.6813 30.3002C81.3571 29.866 80.9675 29.4846 80.5265 29.1696ZM83.9712 33.9594L83.9555 33.8185V33.9623C83.96 33.9623 83.9655 33.9614 83.9712 33.9594ZM68.7233 33.3314L69.2927 32.6197L69.5172 32.7993L68.9479 33.511C68.8173 33.6742 68.8372 33.9109 68.993 34.0501C69.0651 34.1144 69.1583 34.15 69.2549 34.15H70.2922C71.0568 34.15 71.7947 33.8685 72.3651 33.3593L72.5032 33.236L72.6947 33.4505L72.5566 33.5738C71.9335 34.1301 71.1275 34.4376 70.2922 34.4376H69.2549C69.0877 34.4376 68.9263 34.376 68.8015 34.2646C68.5317 34.0237 68.4973 33.6139 68.7233 33.3314Z" fill="#003D5C"/>
<path fill-rule="evenodd" clip-rule="evenodd" d="M58.4578 15.4363L58.7238 15.5455L57.4918 18.5461L57.2057 19.4873C57.05 19.9996 56.9709 20.532 56.9709 21.0674C56.9709 22.0523 57.2386 23.0186 57.7454 23.8631L57.8969 24.1157C58.0845 24.4282 58.298 24.7244 58.5352 25.0011L59.4108 26.0225C59.7669 26.4378 60.0643 26.9 60.2947 27.3962C60.6612 28.1854 60.851 29.045 60.851 29.9152V32.5482C60.851 33.0133 60.627 33.45 60.2491 33.7212L60.172 33.7766C59.9767 33.9168 59.7424 33.9922 59.502 33.9922H59.1969C59.0036 33.9922 58.8325 34.1173 58.7738 34.3015C58.6876 34.5722 58.8743 34.8531 59.1572 34.8785L59.8003 34.9361C60.0202 34.9559 60.2401 34.8994 60.4233 34.7761L60.9402 34.4282C61.2952 34.1893 61.5888 33.87 61.7971 33.4962L61.8864 33.3359C62.1754 32.8172 62.3271 32.2333 62.3271 31.6396V27.993H62.6147V31.6396C62.6147 32.2823 62.4505 32.9144 62.1376 33.4759L62.0483 33.6362C61.818 34.0495 61.4933 34.4026 61.1008 34.6668L60.5838 35.0147C60.3459 35.1748 60.0602 35.2482 59.7746 35.2226L59.1315 35.1649C58.6653 35.123 58.3578 34.6602 58.4998 34.2142C58.5964 33.9107 58.8784 33.7046 59.1969 33.7046H59.502C59.6822 33.7046 59.8579 33.6481 60.0043 33.543L60.0814 33.4876C60.384 33.2704 60.5635 32.9207 60.5635 32.5482V29.9152C60.5635 29.0869 60.3827 28.2686 60.0339 27.5173C59.8146 27.045 59.5315 26.605 59.1925 26.2096L58.3169 25.1883C58.0692 24.8993 57.8462 24.59 57.6504 24.2636L57.4988 24.0111C56.9652 23.1219 56.6833 22.1044 56.6833 21.0674C56.6833 20.5037 56.7667 19.9431 56.9306 19.4037L57.2206 18.4494L58.4578 15.4363Z" fill="#003D5C"/>
<path fill-rule="evenodd" clip-rule="evenodd" d="M66.112 29.7899C66.112 29.4793 65.6792 29.4039 65.5742 29.6962L64.9738 31.368L64.0859 34.058L63.4758 35.4171C63.1749 36.0873 62.5087 36.5185 61.774 36.5185H61.3159C60.5387 36.5185 59.9087 35.8885 59.9087 35.1113H60.1963C60.1963 35.7297 60.6975 36.2309 61.3159 36.2309H61.774C62.3954 36.2309 62.9589 35.8662 63.2134 35.2993L63.8175 33.9538L64.7025 31.2726L65.3036 29.5991C65.5176 29.0033 66.3996 29.1568 66.3996 29.7899C66.3996 29.8374 66.4118 29.8841 66.435 29.9255L66.8855 30.7282C67.3424 31.5425 68.0832 32.1599 68.9665 32.4626L69.3792 32.6041C69.6816 32.7077 69.9934 32.7817 70.3101 32.8251L72.1308 33.0747L75.5049 33.8659L75.4721 34.0059L75.5131 33.8681C75.9128 33.9868 75.8718 34.5657 75.4594 34.6269L74.6192 34.7517C74.5385 34.7637 74.4666 34.809 74.421 34.8767L74.0788 35.3849C74.041 35.4411 74.0208 35.5072 74.0208 35.5749C74.0208 35.7628 74.1731 35.9151 74.3609 35.9151H76.7681C77.268 35.9151 77.7504 35.7313 78.1236 35.3988C78.5495 35.0193 79.1001 34.8096 79.6705 34.8096H80.612V35.0972H79.6705C79.1706 35.0972 78.6882 35.281 78.3149 35.6135C77.8891 35.993 77.3385 36.2027 76.7681 36.2027H74.3609C74.0142 36.2027 73.7332 35.9216 73.7332 35.5749C73.7332 35.45 73.7705 35.3279 73.8402 35.2243L74.1825 34.716C74.2732 34.5814 74.4163 34.4911 74.5769 34.4672L75.4171 34.3425C75.524 34.3266 75.5356 34.1779 75.4344 34.1447L72.0784 33.3578L70.271 33.11C69.9359 33.0641 69.606 32.9858 69.286 32.8761L68.8733 32.7346C67.9231 32.409 67.1262 31.7448 66.6347 30.8689L66.1842 30.0662C66.1369 29.9818 66.112 29.8867 66.112 29.7899Z" fill="#003D5C"/>
<path fill-rule="evenodd" clip-rule="evenodd" d="M56.3497 11.0265C56.8066 10.7545 57.0865 10.262 57.0865 9.73022H57.3741C57.3741 10.3633 57.0408 10.9497 56.4968 11.2736L54.6675 12.3629L52.4303 13.362C52.264 13.4363 52.0839 13.4746 51.9018 13.4746C51.4597 13.4746 51.0482 13.2494 50.81 12.877L50.5153 12.4164C50.4571 12.3254 50.4261 12.2197 50.4261 12.1116C50.4261 11.8338 50.0636 11.7277 49.9139 11.9618L49.2889 12.9387L49.0466 12.7837L49.6716 11.8068C49.9762 11.3307 50.7137 11.5465 50.7137 12.1116C50.7137 12.1647 50.7289 12.2167 50.7575 12.2615L51.0522 12.7221C51.2376 13.0118 51.5578 13.1871 51.9018 13.1871C52.0435 13.1871 52.1836 13.1572 52.313 13.0994L54.5349 12.1072L56.3497 11.0265Z" fill="#003D5C"/>
<path fill-rule="evenodd" clip-rule="evenodd" d="M54.5398 3.36353L53.2856 4.31199L53.1122 4.08263L54.3664 3.13417L54.5398 3.36353ZM54.6716 4.53962L54.0496 4.33381L54.1399 4.06081L54.7619 4.26661C55.3141 4.4493 55.8325 4.7215 56.2964 5.07232L56.3123 5.08435C56.6922 5.37165 57.0306 5.71013 57.3177 6.09015L57.3925 6.18906C57.5452 6.3912 57.6779 6.60776 57.7886 6.83566C58.0463 7.36624 58.1802 7.94842 58.1802 8.53829V9.41385C58.1802 9.66786 57.9743 9.87378 57.7203 9.87378H56.4176L54.6196 9.71515L54.6449 9.4287L56.4303 9.58622H57.7203C57.8155 9.58622 57.8927 9.50905 57.8927 9.41385V8.53829C57.8927 7.99195 57.7686 7.45273 57.5299 6.9613C57.4274 6.75022 57.3045 6.54965 57.163 6.36242L57.0883 6.26351C56.8171 5.90465 56.4976 5.58502 56.1389 5.31371L56.123 5.30168C55.6842 4.96986 55.1939 4.71241 54.6716 4.53962Z" fill="#003D5C"/>
<path fill-rule="evenodd" clip-rule="evenodd" d="M45.3827 11.428C45.7989 10.9501 46.4468 10.7442 47.0625 10.8942L47.4117 10.9792C47.8846 11.0944 48.3084 11.3575 48.6214 11.7302L48.7598 11.895C49.0858 12.2832 49.306 12.7491 49.399 13.2475L49.6188 14.4252L49.6192 14.4276L50.0581 17.3021C50.1172 17.689 50.236 18.0643 50.4104 18.4147L50.5463 18.6878C50.7325 19.062 51.0077 19.3847 51.3477 19.6276C51.5602 19.7794 51.7948 19.8978 52.0432 19.9784L52.6094 20.1623C53.2487 20.3699 53.9166 20.4757 54.5888 20.4757H57.2638C58.1463 20.4757 58.9978 20.1508 59.656 19.563L59.7518 19.6702L59.6659 19.5548L60.5438 18.9015C60.681 18.7994 60.8369 18.7251 61.0027 18.6828L61.7793 18.4846C61.9869 18.4316 62.2011 18.5437 62.2761 18.7444C62.3535 18.952 62.2563 19.1839 62.0541 19.2742L61.6306 19.4633C61.6119 19.4717 61.5946 19.4829 61.5793 19.4965C61.4435 19.6179 61.5293 19.8428 61.7115 19.8428H64.541C64.7149 19.8428 64.8558 19.9837 64.8558 20.1576C64.8558 20.3119 64.7439 20.4435 64.5915 20.4683L62.9242 20.739C62.9144 20.7406 62.9071 20.7491 62.9071 20.7591C62.9071 20.7709 62.9172 20.7802 62.929 20.7794L64.6235 20.6533C64.8445 20.6368 65.033 20.8117 65.033 21.0334C65.033 21.2319 64.8805 21.3972 64.6826 21.4133L63.1105 21.541C63.0957 21.5422 63.0843 21.5545 63.0843 21.5693C63.0843 21.5841 63.0956 21.5964 63.1102 21.5977L64.499 21.7217C64.701 21.7398 64.8558 21.9091 64.8558 22.1119C64.8558 22.3282 64.6804 22.5035 64.4641 22.5035H63.1504L63.4776 22.6205C63.6764 22.6915 63.7636 22.9241 63.6605 23.1083C63.5943 23.2267 63.4642 23.2945 63.3292 23.2811L62.0664 23.1558C61.9223 23.1415 61.7799 23.1135 61.6411 23.0722L60.3671 22.6929C60.2646 22.6624 60.1701 22.6097 60.0903 22.5384C59.9095 22.377 59.6321 22.3924 59.4704 22.573L59.3278 22.7321C59.1918 22.884 59.0101 22.9875 58.8102 23.0272L57.8394 23.2199C57.5891 23.2696 57.3344 23.2946 57.0792 23.2946H53.8823C53.2991 23.2946 52.7174 23.2341 52.1467 23.1142L51.551 22.989C50.4964 22.7674 49.5183 22.273 48.7146 21.5552C48.2058 21.1008 47.776 20.5651 47.4428 19.9699L46.34 18.0001L46.4655 17.9299L46.332 17.9833C45.74 16.5031 45.4359 14.9236 45.4359 13.3295V12.5569L45.3804 11.9117C45.1429 12.289 45.0149 12.7277 45.0149 13.1784V14.3106C45.0149 14.7076 45.0587 15.1035 45.1455 15.491L45.2035 15.75C45.3094 16.2233 45.4593 16.6856 45.6511 17.131L47.126 20.5557L47.3444 20.9458C47.6588 21.5073 48.0642 22.0127 48.5442 22.4413L48.8134 22.6817C49.3294 23.1426 49.7333 23.7153 49.9942 24.3561L50.1514 24.7421C50.269 25.0309 50.3294 25.3397 50.3294 25.6515C50.3294 26.1122 50.1975 26.5633 49.9492 26.9513L49.6399 27.4347C49.6035 27.4916 49.5577 27.5419 49.5045 27.5835L48.9789 27.9942C48.8703 28.0791 48.9449 28.2528 49.0812 28.2325C49.1018 28.2295 49.1225 28.2279 49.1433 28.2279H50.1902L50.3515 28.2382C51.9052 28.3373 53.4287 28.7131 54.8502 29.3479L54.7916 29.4792L54.8539 29.3496L56.8546 30.3117C57.0626 30.4118 57.2624 30.5282 57.452 30.6599C58.3305 31.2701 58.9538 32.1821 59.2034 33.2221L59.3602 33.8755L59.0805 33.9426L58.9237 33.2892C58.6907 32.3178 58.1084 31.466 57.288 30.8961C57.1109 30.7731 56.9243 30.6643 56.7299 30.5709L54.7329 29.6105C54.7323 29.6102 54.7317 29.6099 54.7311 29.6097C53.3414 28.9893 51.852 28.6221 50.3332 28.5252L50.1811 28.5155H49.1433C49.1367 28.5155 49.1301 28.516 49.1236 28.517C48.6951 28.5808 48.4605 28.0344 48.8018 27.7676L49.3274 27.3569C49.3551 27.3353 49.3788 27.3092 49.3977 27.2797L49.707 26.7964C49.9256 26.4546 50.0419 26.0573 50.0419 25.6515C50.0419 25.3769 49.9886 25.1049 49.885 24.8505L49.7279 24.4645C49.4835 23.8643 49.1052 23.3279 48.6218 22.8962L48.3526 22.6558C47.8489 22.206 47.4234 21.6756 47.0935 21.0863L46.8678 20.6832L45.387 17.2448C45.1881 16.783 45.0327 16.3036 44.9229 15.8129L44.8648 15.5538C44.7734 15.1457 44.7273 14.7288 44.7273 14.3106V13.1784C44.7273 12.5349 44.9601 11.9132 45.3827 11.428ZM45.6398 11.5726L45.7235 12.5446V13.3295C45.7235 14.8839 46.0195 16.4241 46.5955 17.8678L47.6937 19.8294C48.0114 20.3968 48.4211 20.9075 48.9061 21.3407C49.6724 22.025 50.6047 22.4963 51.6101 22.7076L52.2058 22.8328C52.7571 22.9486 53.3189 23.007 53.8823 23.007H57.0792C57.3156 23.007 57.5515 22.9838 57.7834 22.9378L58.7542 22.7452C58.893 22.7176 59.0192 22.6457 59.1136 22.5402L59.2562 22.3811C59.5238 22.0824 59.9827 22.0568 60.2818 22.3239C60.3301 22.367 60.3872 22.3989 60.4491 22.4173L61.7231 22.7966C61.8444 22.8327 61.9689 22.8572 62.0948 22.8697L63.3576 22.995C63.3788 22.9971 63.3992 22.9864 63.4096 22.9678C63.4258 22.9389 63.4121 22.9024 63.3809 22.8913L62.7766 22.6754C62.6824 22.6417 62.6196 22.5525 62.6196 22.4526C62.6196 22.3219 62.7255 22.216 62.8562 22.216H64.4641C64.5216 22.216 64.5682 22.1694 64.5682 22.1119C64.5682 22.058 64.5271 22.013 64.4734 22.0082L63.0847 21.8841C62.9217 21.8696 62.7967 21.733 62.7967 21.5693C62.7967 21.4047 62.9231 21.2677 63.0872 21.2543L64.6593 21.1267C64.708 21.1227 64.7454 21.0821 64.7454 21.0334C64.7454 20.9789 64.6991 20.936 64.6448 20.94L62.9503 21.0661C62.7718 21.0794 62.6196 20.9381 62.6196 20.7591C62.6196 20.6081 62.7291 20.4794 62.8781 20.4551L64.5454 20.1844C64.5586 20.1823 64.5682 20.1709 64.5682 20.1576C64.5682 20.1426 64.5561 20.1304 64.541 20.1304H61.7115C61.2652 20.1304 61.0549 19.5793 61.3878 19.282C61.4252 19.2486 61.4675 19.2212 61.5133 19.2008L61.9368 19.0117C62.0004 18.9832 62.031 18.9103 62.0066 18.845C61.9831 18.7818 61.9157 18.7466 61.8504 18.7633L61.0738 18.9614C60.9444 18.9944 60.8226 19.0525 60.7155 19.1322L59.8427 19.7817C59.1325 20.4139 58.2148 20.7632 57.2638 20.7632H54.5888C53.8865 20.7632 53.1885 20.6527 52.5206 20.4358L51.9544 20.2519C51.678 20.1622 51.417 20.0305 51.1805 19.8616C50.8022 19.5913 50.496 19.2322 50.2888 18.816L50.1529 18.5428C49.9653 18.1658 49.8374 17.7619 49.7738 17.3455L49.3353 14.4733L49.1163 13.3003C49.0324 12.8506 48.8337 12.4302 48.5396 12.0799L48.4012 11.9152C48.1276 11.5893 47.7571 11.3593 47.3437 11.2586L46.9944 11.1736C46.5026 11.0538 45.986 11.2074 45.6398 11.5726ZM39.1257 28.0329C39.5882 27.5511 40.2271 27.2787 40.895 27.2787H42.1284C42.6693 27.2787 43.207 27.3608 43.7232 27.5221L46.4997 28.39L49.1577 28.8648L53.0727 30.1362L55.583 31.3019C56.8716 31.9004 58.0251 32.7548 58.9731 33.8131L58.866 33.9091L59.0091 33.9236C58.895 35.0441 58.1563 36.0033 57.1021 36.3997L56.137 36.7626C55.616 36.9585 55.064 37.0588 54.5074 37.0588H49.1147L45.064 36.6066C44.8933 36.5876 44.7364 36.5035 44.6258 36.3719L44.2948 35.9777C44.1782 35.8389 43.952 35.9213 43.952 36.1025C43.952 36.3686 43.7363 36.5842 43.4703 36.5842H39.5576C39.0719 36.5842 38.5895 36.5037 38.1301 36.3459L37.6498 36.1809C36.9024 35.9242 36.1177 35.7932 35.3275 35.7932H0V35.5056H35.3275C36.1495 35.5056 36.9658 35.6419 37.7432 35.9089L38.2235 36.0739C38.6529 36.2214 39.1037 36.2966 39.5576 36.2966H43.4703C43.5775 36.2966 43.6644 36.2097 43.6644 36.1025C43.6644 35.6529 44.2258 35.4485 44.515 35.7928L44.8461 36.187C44.9091 36.2621 44.9986 36.31 45.0959 36.3209L49.1307 36.7713H54.5074C55.0295 36.7713 55.5472 36.6772 56.0358 36.4934L57.0009 36.1305C57.8825 35.799 58.5199 35.0316 58.691 34.1163C57.8048 34.3888 56.8823 34.5275 55.9543 34.5275H45.5701L43.7368 34.2819C42.5851 34.1276 41.4916 33.6826 40.5594 32.9888L40.2608 32.7666C39.9612 32.5436 39.6933 32.281 39.4645 31.9858L38.9661 31.3429C38.4589 30.6886 38.301 29.8286 38.5429 29.0368L38.5496 29.0148C38.6619 28.6469 38.8593 28.3105 39.1257 28.0329ZM58.6086 33.8408C57.716 32.8871 56.6478 32.1135 55.4618 31.5627L52.9674 30.4043L49.0877 29.1444L46.4313 28.6699L43.6374 27.7966C43.149 27.6439 42.6402 27.5663 42.1284 27.5663H40.895C40.3055 27.5663 39.7414 27.8067 39.3332 28.2321C39.098 28.4771 38.9238 28.774 38.8246 29.0988L38.8179 29.1208C38.6034 29.8233 38.7434 30.5862 39.1934 31.1667L39.6917 31.8096C39.9046 32.0842 40.1538 32.3285 40.4325 32.5359L40.7311 32.7582C41.6241 33.4228 42.6716 33.8491 43.775 33.9969L45.5893 34.2399H55.9543C56.8544 34.2399 57.749 34.1053 58.6086 33.8408Z" fill="#003D5C"/>
<path fill-rule="evenodd" clip-rule="evenodd" d="M52.1636 2.8525C51.8738 2.8525 51.5849 2.88463 51.3022 2.94828C50.6875 3.0867 50.1151 3.37122 49.6337 3.77774L48.2865 4.91529C47.8167 5.31198 47.3806 5.74693 46.9826 6.21566L45.2964 8.20168L45.2955 8.20274L40.9171 13.4609C40.8431 13.5497 40.9063 13.6846 41.0219 13.6846C41.0556 13.6846 41.0881 13.6721 41.1132 13.6495L45.094 10.0641L48.6213 7.3636L51.6219 4.66108L52.7886 3.84374C53.0073 3.69055 53.2799 3.91957 53.1876 4.15346H53.6373C53.7154 4.15346 53.7895 4.11875 53.8395 4.05873L54.12 3.72191C54.1803 3.64947 54.2133 3.55819 54.2133 3.46392C54.2133 3.27537 54.0826 3.11201 53.8987 3.07059L53.0868 2.88777C52.9827 2.86433 52.8763 2.8525 52.7696 2.8525H52.1636ZM51.239 2.66775C51.5425 2.59942 51.8525 2.56494 52.1636 2.56494H52.7696C52.8976 2.56494 53.0251 2.57912 53.1499 2.60723L53.9619 2.79005C54.277 2.86101 54.5009 3.1409 54.5009 3.46392C54.5009 3.62542 54.4443 3.78182 54.3409 3.90592L54.0605 4.24274C53.9559 4.36837 53.8008 4.44102 53.6373 4.44102H53.1506C52.9768 4.44102 52.8582 4.27987 52.8918 4.12255L51.8079 4.88188L51.7885 4.9037C51.3543 5.39249 51.0151 5.95794 50.7882 6.57107L50.4081 7.59823C50.1871 8.19537 49.7138 8.66454 49.1148 8.88036L49.066 8.74509L49.1074 8.88279L47.929 9.23658C47.3157 9.4207 46.7247 9.67211 46.1667 9.98622C45.8016 10.1918 45.4518 10.4235 45.1201 10.6795L43.6428 11.82C43.3274 12.0635 43.0367 12.3374 42.7747 12.6376L42.1247 13.3828C41.5757 14.0121 41.2732 14.8189 41.2732 15.654C41.2732 16.038 41.2142 16.4196 41.0981 16.7856L40.6146 18.3096C40.5836 18.4075 40.5678 18.5096 40.5678 18.6123V19.5425C40.5678 20.1062 41.2543 20.3829 41.6452 19.9767L41.8399 19.7744C42.2542 19.3438 42.9804 19.5387 43.1235 20.1188C43.1888 20.3834 43.1072 20.6627 42.9096 20.8505L40.1297 23.4934C40.0716 23.5487 40.0387 23.6254 40.0387 23.7056C40.0387 23.9693 40.3597 24.0986 40.5425 23.9087L41.9015 22.4963C42.0453 22.347 42.2436 22.2626 42.4509 22.2626H42.5357C42.9099 22.2626 43.2133 22.5659 43.2133 22.9401C43.2133 23.1488 43.1171 23.3458 42.9527 23.4742L40.6542 25.2683C40.5997 25.3109 40.5678 25.3763 40.5678 25.4455C40.5678 25.6347 40.7872 25.7393 40.9341 25.6202L41.8422 24.884C42.0328 24.7296 42.2705 24.6453 42.5158 24.6453H43.1139C43.5717 24.6453 44.0222 24.7593 44.4249 24.9769L45.6046 25.6144L47.4183 26.5054C47.4918 26.5416 47.5689 26.5701 47.6482 26.5905L48.2507 26.7455C48.4704 26.802 48.6987 26.6916 48.7908 26.4843C48.8587 26.3314 48.8391 26.1539 48.7397 26.0195L48.2468 25.3537L47.1765 24.0281C46.9366 23.7311 46.8058 23.3609 46.8058 22.9791V22.2179C46.8058 21.7162 47.2125 21.3094 47.7142 21.3094C47.9388 21.3094 48.1554 21.3926 48.3222 21.5429L49.1623 22.2995L49.066 22.4063L49.1725 22.3097C50.1561 23.3925 51.5511 24.0099 53.014 24.0099H53.5333C54.0682 24.0099 54.601 23.9425 55.1191 23.8091L56.7904 23.379L56.8621 23.6575L55.1907 24.0876C54.6493 24.227 54.0924 24.2975 53.5333 24.2975H53.014C51.4725 24.2975 50.0024 23.6479 48.9645 22.5084L48.1297 21.7565C48.0157 21.6538 47.8677 21.597 47.7142 21.597C47.3714 21.597 47.0934 21.875 47.0934 22.2179V22.9791C47.0934 23.2951 47.2017 23.6016 47.4002 23.8474L48.4743 25.1777L48.9708 25.8484C49.1319 26.0661 49.1635 26.3535 49.0536 26.601C48.9045 26.9367 48.5347 27.1155 48.179 27.024L47.5765 26.869C47.4782 26.8436 47.3826 26.8083 47.2915 26.7635L45.4728 25.87L44.2882 25.2299C43.9275 25.035 43.5239 24.9329 43.1139 24.9329H42.5158C42.3365 24.9329 42.1626 24.9945 42.0233 25.1074L41.1152 25.8435C40.7803 26.115 40.2802 25.8767 40.2802 25.4455C40.2802 25.2877 40.3529 25.1387 40.4773 25.0416L42.7757 23.2475C42.8704 23.1736 42.9257 23.0602 42.9257 22.9401C42.9257 22.7247 42.7511 22.5501 42.5357 22.5501H42.4509C42.3218 22.5501 42.1983 22.6027 42.1088 22.6957L40.7497 24.1081C40.3875 24.4846 39.7511 24.2281 39.7511 23.7056C39.7511 23.5466 39.8163 23.3946 39.9316 23.285L42.7115 20.6421C42.8342 20.5255 42.8849 20.352 42.8443 20.1876C42.7554 19.8274 42.3044 19.7064 42.0471 19.9737L41.8524 20.1761C41.2821 20.7688 40.2802 20.3651 40.2802 19.5425V18.6123C40.2802 18.4801 40.3005 18.3486 40.3405 18.2226L40.824 16.6987C40.9311 16.3608 40.9857 16.0085 40.9857 15.654C40.9857 14.9188 41.2021 14.2038 41.6024 13.5959L41.3056 13.8632C41.2278 13.9333 41.1267 13.9721 41.0219 13.9721C40.6625 13.9721 40.4661 13.553 40.6961 13.2769L45.0763 8.01662L46.7634 6.02955C47.1717 5.54871 47.6191 5.10252 48.101 4.69557L49.4482 3.55802C49.9649 3.12169 50.5792 2.81631 51.239 2.66775ZM45.908 9.80301C45.9471 9.78026 45.9863 9.7578 46.0256 9.73563C46.6021 9.41112 47.2127 9.15139 47.8463 8.96116L49.0209 8.60852C49.5385 8.42086 49.9472 8.01485 50.1384 7.49842L50.5185 6.47126C50.6112 6.22084 50.7216 5.97796 50.8488 5.74439L48.8053 7.58495L45.908 9.80301Z" fill="#003D5C"/>
<path fill-rule="evenodd" clip-rule="evenodd" d="M50.9117 6.63495L51.0202 5.39671L51.3067 5.42182L51.1982 6.66006C51.1517 7.19027 51.2338 7.72386 51.4376 8.21556L51.6742 8.78652C51.7734 9.02607 51.9423 9.23032 52.1589 9.37287C52.3704 9.51207 52.618 9.58625 52.8712 9.58625H53.5704C53.7807 9.58625 53.9906 9.56797 54.1978 9.53161L54.786 9.42839L54.8357 9.71162L54.2475 9.81485C54.0239 9.85408 53.7974 9.87382 53.5704 9.87382H52.8712C52.5619 9.87382 52.2592 9.78317 52.0008 9.61308C51.7361 9.43889 51.5298 9.18931 51.4085 8.89661L51.1719 8.32564C50.9504 7.79121 50.8612 7.21124 50.9117 6.63495Z" fill="#003D5C"/>
</svg>
