<svg width="42" height="42" viewBox="0 0 42 42" fill="none" xmlns="http://www.w3.org/2000/svg">
<circle cx="21" cy="21" r="21" fill="#003D5C"/>
<rect width="24" height="24" transform="translate(9 9)" fill="#003D5C"/>
<path d="M16.9999 20.01V20M24.9999 20.01V20M16.9999 17V16C16.9999 14.9391 17.4213 13.9217 18.1715 13.1716C18.9216 12.4214 19.939 12 20.9999 12C22.0607 12 23.0782 12.4214 23.8283 13.1716C24.5784 13.9217 24.9999 14.9391 24.9999 16V17M16.9999 17H15.8401C14.8 17 13.9334 17.7973 13.8471 18.8339L13.1804 26.8339C13.0832 27.9999 14.0034 29 15.1735 29H26.8263C27.9964 29 28.9165 27.9999 28.8194 26.8339L28.1527 18.8339C28.0663 17.7973 27.1998 17 26.1596 17H24.9999M16.9999 17H24.9999" stroke="white" stroke-width="1.5" stroke-linecap="round" stroke-linejoin="round"/>
</svg>
