<svg width="24" height="24" viewBox="0 0 24 24" fill="none" xmlns="http://www.w3.org/2000/svg">
<path d="M7.99988 11.01V11M15.9999 11.01V11M7.99988 8V7C7.99988 5.93913 8.42131 4.92172 9.17145 4.17157C9.9216 3.42143 10.939 3 11.9999 3C13.0607 3 14.0782 3.42143 14.8283 4.17157C15.5784 4.92172 15.9999 5.93913 15.9999 7V8M7.99988 8H6.84014C5.79997 8 4.93344 8.79732 4.84705 9.83391L4.18039 17.8339C4.08322 18.9999 5.0034 20 6.17348 20H17.8263C18.9964 20 19.9165 18.9999 19.8194 17.8339L19.1527 9.83391C19.0663 8.79732 18.1998 8 17.1596 8H15.9999M7.99988 8H15.9999" stroke="#082737" stroke-width="1.5" stroke-linecap="round" stroke-linejoin="round"/>
<circle cx="19" cy="6" r="5" fill="#FFAF32"/>
<path d="M17 8.33333L19.427 5.77903C19.5518 5.64419 19.6592 5.51436 19.7491 5.38951C19.839 5.26467 19.9064 5.13983 19.9513 5.01498C19.9963 4.89014 20.0187 4.7578 20.0187 4.61798C20.0187 4.5181 19.9988 4.42072 19.9588 4.32584C19.9238 4.22597 19.8664 4.13608 19.7865 4.05618C19.7116 3.97628 19.6192 3.91386 19.5094 3.86891C19.3995 3.81898 19.2722 3.79401 19.1273 3.79401C18.9276 3.79401 18.7553 3.84145 18.6105 3.93633C18.4657 4.02622 18.3533 4.15855 18.2734 4.33333C18.1985 4.50811 18.161 4.71036 18.161 4.94007H17.2846C17.2846 4.56554 17.3546 4.23346 17.4944 3.94382C17.6392 3.64919 17.8489 3.41948 18.1236 3.25468C18.4032 3.08489 18.7428 3 19.1423 3C19.4469 3 19.7116 3.04994 19.9363 3.14981C20.161 3.24469 20.3458 3.36954 20.4906 3.52434C20.6404 3.67915 20.7503 3.84894 20.8202 4.03371C20.8951 4.21848 20.9326 4.39825 20.9326 4.57303C20.9326 4.84769 20.8652 5.11236 20.7303 5.36704C20.6005 5.62172 20.4282 5.84894 20.2135 6.04869L18.7228 7.50936H21V8.33333H17Z" fill="#082737"/>
</svg>
