<svg width="66" height="63" viewBox="0 0 66 63" fill="none" xmlns="http://www.w3.org/2000/svg">
<path d="M25.5393 20.7023C27.4652 20.4596 28.8103 17.9931 28.3891 15.2142C28.0682 13.0976 26.1672 10.2221 24.2639 10.6043C23.2234 10.8134 21.0623 13.3039 21.4145 16.0925C21.7666 18.8808 23.6133 20.9446 25.5393 20.7023Z" fill="#FEC039"/>
<path d="M19.4975 22.0513C18.9531 20.6492 16.5635 18.8172 15.14 19.5101C14.1591 19.9872 13.3336 22.4094 14.307 24.4854C15.2803 26.5608 17.2311 27.6986 18.6644 27.0265C20.0978 26.3544 20.327 24.1885 19.4975 22.0513Z" fill="#FEC039"/>
<path d="M38.1464 35.484C38.3518 32.8364 37.0224 31.8862 35.8126 30.8886C34.6811 29.9554 33.9419 28.6469 33.683 27.203C33.2243 24.6463 31.1885 22.7756 28.6873 22.4248C26.1861 22.074 23.7163 23.313 22.5751 25.6453C21.9305 26.9623 20.8618 28.0174 19.518 28.6031C18.0813 29.23 16.5428 29.7782 16.0152 32.3804C15.3642 35.5922 17.8249 38.6264 21.0697 39.0814C21.9838 39.2095 22.8781 39.1218 23.7015 38.8572C24.5931 38.571 25.5258 38.4875 26.4281 38.6088C27.329 38.7404 28.203 39.0769 28.9818 39.5979C29.7011 40.0787 30.5372 40.4091 31.4514 40.5372C34.6956 40.9924 37.8929 38.7517 38.1464 35.484Z" fill="#FEC039"/>
<path d="M32.238 21.631C34.0268 22.3863 36.3616 20.9001 37.453 18.3105C38.5445 15.7217 37.1356 12.738 36.19 12.2546C34.4609 11.3709 31.8552 13.6241 30.9752 15.575C29.8197 18.1363 30.4489 20.8753 32.238 21.631Z" fill="#FEC039"/>
<path d="M37.1449 29.5827C38.3436 30.6181 40.5287 30.0517 42.0259 28.3173C43.5227 26.5825 43.3816 24.027 42.5659 23.3015C41.3823 22.2488 38.5875 23.3649 37.6854 24.5672C36.3097 26.3998 35.9463 28.5473 37.1449 29.5827Z" fill="#FEC039"/>
<path d="M47.6504 47.3212C47.9698 48.2699 49.3539 48.698 50.7156 48.2013C51.7528 47.8229 53.0121 46.5683 52.6246 45.6452C52.4126 45.1406 50.933 44.3026 49.5594 44.7654C48.1859 45.2281 47.3312 46.3724 47.6504 47.3212Z" fill="#FEC039"/>
<path d="M46.3516 44.405C47.0048 43.9866 47.6867 42.5916 47.1911 41.9428C46.8498 41.4957 45.5411 41.3258 44.5911 42.0298C43.6414 42.7338 43.2655 43.8361 43.7516 44.492C44.2378 45.1479 45.356 45.0425 46.3516 44.405Z" fill="#FEC039"/>
<path d="M41.466 55.2035C42.8253 55.0369 43.1698 54.2679 43.5506 53.5545C43.9068 52.8872 44.4927 52.38 45.1961 52.1016C46.4416 51.6086 47.1793 50.3885 47.1012 49.0884C47.0231 47.7882 46.1446 46.6663 44.8491 46.3277C44.1176 46.1363 43.4751 45.7038 43.0418 45.0844C42.5782 44.4222 42.1439 43.7004 40.7747 43.6995C39.0847 43.6984 37.8023 45.2522 37.9036 46.9388C37.9322 47.414 38.0679 47.8571 38.2857 48.2463C38.5214 48.6678 38.6589 49.1307 38.6897 49.5991C38.7152 50.068 38.6344 50.5442 38.4505 50.991C38.281 51.4037 38.1993 51.8601 38.228 52.3353C38.3292 54.0217 39.7883 55.4091 41.466 55.2035Z" fill="#FEC039"/>
<path d="M47.865 50.8022C47.6659 51.7835 48.6556 52.812 50.0761 53.0992C51.4962 53.3865 52.8605 52.3697 53.0083 51.8423C53.2784 50.878 51.8733 49.791 50.7973 49.5454C49.3846 49.2229 48.0643 49.8207 47.865 50.8022Z" fill="#FEC039"/>
<path d="M44.3467 54.0946C43.9457 54.8063 44.4552 55.853 45.4848 56.4326C46.5145 57.0121 47.7919 56.6798 48.0754 56.1934C48.4866 55.4876 47.637 54.1888 46.9371 53.8556C45.8703 53.3474 44.7477 53.383 44.3467 54.0946Z" fill="#FEC039"/>
</svg>
