<svg width="74" height="74" viewBox="0 0 74 74" fill="none" xmlns="http://www.w3.org/2000/svg">
<g filter="url(#filter0_d_30_895)">
<circle cx="36" cy="36" r="21" fill="white"/>
<path d="M36 29C29.6364 29 26 36 26 36C26 36 29.6364 43 36 43C42.3636 43 46 36 46 36C46 36 42.3636 29 36 29Z" stroke="#18384B" stroke-width="1.5" stroke-linecap="round" stroke-linejoin="round"/>
<path d="M36 39C37.6569 39 39 37.6569 39 36C39 34.3431 37.6569 33 36 33C34.3431 33 33 34.3431 33 36C33 37.6569 34.3431 39 36 39Z" stroke="#18384B" stroke-width="1.5" stroke-linecap="round" stroke-linejoin="round"/>
</g>
<defs>
<filter id="filter0_d_30_895" x="0" y="0" width="74" height="74" filterUnits="userSpaceOnUse" color-interpolation-filters="sRGB">
<feFlood flood-opacity="0" result="BackgroundImageFix"/>
<feColorMatrix in="SourceAlpha" type="matrix" values="0 0 0 0 0 0 0 0 0 0 0 0 0 0 0 0 0 0 127 0" result="hardAlpha"/>
<feOffset dx="1" dy="1"/>
<feGaussianBlur stdDeviation="8"/>
<feComposite in2="hardAlpha" operator="out"/>
<feColorMatrix type="matrix" values="0 0 0 0 0 0 0 0 0 0 0 0 0 0 0 0 0 0 0.08 0"/>
<feBlend mode="normal" in2="BackgroundImageFix" result="effect1_dropShadow_30_895"/>
<feBlend mode="normal" in="SourceGraphic" in2="effect1_dropShadow_30_895" result="shape"/>
</filter>
</defs>
</svg>
