<svg width="18" height="18" viewBox="0 0 18 18" fill="none" xmlns="http://www.w3.org/2000/svg">
<path d="M17.8207 5.40004C17.8207 5.40004 17.6449 4.15902 17.1035 3.6141C16.418 2.89691 15.6516 2.8934 15.3 2.85121C12.7828 2.6684 9.00352 2.6684 9.00352 2.6684H8.99648C8.99648 2.6684 5.21719 2.6684 2.7 2.85121C2.34844 2.8934 1.58203 2.89691 0.896484 3.6141C0.355078 4.15902 0.182812 5.40004 0.182812 5.40004C0.182812 5.40004 0 6.85902 0 8.31449V9.67855C0 11.134 0.179297 12.593 0.179297 12.593C0.179297 12.593 0.355078 13.834 0.892969 14.3789C1.57852 15.0961 2.47852 15.0715 2.8793 15.1489C4.3207 15.286 9 15.3282 9 15.3282C9 15.3282 12.7828 15.3211 15.3 15.1418C15.6516 15.0996 16.418 15.0961 17.1035 14.3789C17.6449 13.834 17.8207 12.593 17.8207 12.593C17.8207 12.593 18 11.1375 18 9.67855V8.31449C18 6.85902 17.8207 5.40004 17.8207 5.40004ZM7.14023 11.3344V6.27543L12.0023 8.81371L7.14023 11.3344Z" fill="white"/>
</svg>
